<svg width="21" height="21" viewBox="0 0 21 21" fill="none" xmlns="http://www.w3.org/2000/svg">
<g clip-path="url(#clip0_4_793)">
<path fill-rule="evenodd" clip-rule="evenodd" d="M0.203247 3.22934H20.2032V17.5151H0.203247V3.22934Z" fill="url(#paint0_linear_4_793)"/>
<path fill-rule="evenodd" clip-rule="evenodd" d="M0.201355 3.22934H20.2014V17.5151H0.201355V3.22934Z" fill="url(#paint1_linear_4_793)"/>
<path fill-rule="evenodd" clip-rule="evenodd" d="M4.96802 12.7531H0.20135V7.99122H4.96802L-1.7796 3.43884L-0.71484 1.86075L7.8204 7.61789V2.27694H12.5823V7.61789L21.1175 1.86075L22.1823 3.43884L15.4347 7.99122H20.2014V12.7531H15.4347L22.1823 17.3055L21.1175 18.8836L12.5823 13.1265V18.4674H7.8204V13.1265L-0.71484 18.8836L-1.7796 17.3046L4.96802 12.7531Z" fill="url(#paint2_linear_4_793)"/>
<path d="M13.6661 7.95123L22.7137 1.99885C22.7634 1.96286 22.7972 1.9091 22.8082 1.84876C22.8192 1.78843 22.8065 1.72618 22.7728 1.67498C22.739 1.62378 22.6868 1.58759 22.627 1.57394C22.5672 1.56029 22.5045 1.57023 22.4518 1.60171L13.4042 7.55409C13.3766 7.57059 13.3526 7.59251 13.3338 7.61852C13.3149 7.64453 13.3014 7.6741 13.2943 7.70545C13.2871 7.73679 13.2864 7.76926 13.2921 7.8009C13.2978 7.83253 13.3099 7.86268 13.3276 7.88952C13.3453 7.91636 13.3683 7.93934 13.3951 7.95707C13.4219 7.97479 13.4521 7.98691 13.4837 7.99267C13.5153 7.99844 13.5478 7.99774 13.5791 7.99062C13.6105 7.9835 13.6401 7.9701 13.6661 7.95123ZM14.3633 13.2103L22.4728 18.6769C22.4987 18.6945 22.5279 18.7067 22.5586 18.7129C22.5892 18.7192 22.6208 18.7193 22.6516 18.7133C22.6823 18.7074 22.7116 18.6954 22.7377 18.6781C22.7638 18.6609 22.7862 18.6386 22.8037 18.6127C22.8212 18.5867 22.8335 18.5576 22.8397 18.5269C22.846 18.4962 22.8461 18.4646 22.8401 18.4339C22.8342 18.4031 22.8222 18.3739 22.8049 18.3478C22.7876 18.3217 22.7654 18.2992 22.7394 18.2817L14.629 12.815C14.5766 12.7798 14.5123 12.7668 14.4503 12.779C14.3883 12.7911 14.3337 12.8274 14.2985 12.8798C14.2633 12.9322 14.2503 12.9965 14.2624 13.0585C14.2746 13.1204 14.3108 13.175 14.3633 13.2103ZM6.05278 7.5398L-2.40627 1.8379C-2.43222 1.82039 -2.46137 1.80816 -2.49205 1.80192C-2.52272 1.79567 -2.55433 1.79553 -2.58506 1.8015C-2.61579 1.80747 -2.64505 1.81943 -2.67116 1.83671C-2.69726 1.85398 -2.71971 1.87623 -2.73722 1.90218C-2.75473 1.92814 -2.76696 1.95728 -2.77321 1.98796C-2.77945 2.01864 -2.77959 2.05024 -2.77362 2.08097C-2.76765 2.11171 -2.75569 2.14096 -2.73841 2.16707C-2.72114 2.19318 -2.69889 2.21563 -2.67294 2.23314L5.78706 7.93409C5.83934 7.96527 5.90158 7.97524 5.96098 7.96195C6.02038 7.94866 6.07244 7.91313 6.10646 7.86266C6.14047 7.81218 6.15387 7.75059 6.14388 7.69054C6.1339 7.6305 6.1013 7.57656 6.05278 7.5398ZM6.70516 12.7484L-2.67103 18.9674C-2.69896 18.9838 -2.72326 19.0057 -2.74244 19.0318C-2.76162 19.0579 -2.77527 19.0876 -2.78257 19.1191C-2.78987 19.1507 -2.79065 19.1834 -2.78488 19.2153C-2.77911 19.2471 -2.7669 19.2775 -2.749 19.3044C-2.7311 19.3314 -2.70789 19.3545 -2.68077 19.3722C-2.65366 19.3899 -2.62323 19.4019 -2.59133 19.4074C-2.55942 19.4129 -2.52673 19.4119 -2.49524 19.4044C-2.46375 19.3969 -2.43412 19.383 -2.40818 19.3636L6.96897 13.1455C6.99504 13.1282 7.01745 13.1059 7.03492 13.0799C7.05238 13.0539 7.06455 13.0248 7.07074 12.9941C7.07693 12.9634 7.07702 12.9318 7.071 12.9011C7.06497 12.8704 7.05296 12.8411 7.03563 12.815C7.01831 12.789 6.99602 12.7666 6.97004 12.7491C6.94406 12.7316 6.91489 12.7195 6.8842 12.7133C6.85351 12.7071 6.82191 12.707 6.79119 12.713C6.76047 12.719 6.73123 12.7311 6.70516 12.7484Z" fill="#DB1F35"/>
<path fill-rule="evenodd" clip-rule="evenodd" d="M0.201355 11.8008H8.77278V17.5151H11.6299V11.8008H20.2014V8.94363H11.6299V3.22934H8.77278V8.94363H0.201355V11.8008Z" fill="url(#paint3_linear_4_793)"/>
</g>
<defs>
<linearGradient id="paint0_linear_4_793" x1="1000.2" y1="3.22934" x2="1000.2" y2="1431.8" gradientUnits="userSpaceOnUse">
<stop stop-color="white"/>
<stop offset="1" stop-color="#F0F0F0"/>
</linearGradient>
<linearGradient id="paint1_linear_4_793" x1="1000.2" y1="3.22934" x2="1000.2" y2="1431.8" gradientUnits="userSpaceOnUse">
<stop stop-color="#0A17A7"/>
<stop offset="1" stop-color="#030E88"/>
</linearGradient>
<linearGradient id="paint2_linear_4_793" x1="1196.32" y1="1.86075" x2="1196.32" y2="1704.15" gradientUnits="userSpaceOnUse">
<stop stop-color="white"/>
<stop offset="1" stop-color="#F0F0F0"/>
</linearGradient>
<linearGradient id="paint3_linear_4_793" x1="1000.2" y1="3.22934" x2="1000.2" y2="1431.8" gradientUnits="userSpaceOnUse">
<stop stop-color="#E6273E"/>
<stop offset="1" stop-color="#CF152B"/>
</linearGradient>
<clipPath id="clip0_4_793">
<rect width="20" height="14.2857" fill="white" transform="translate(0.203247 3.22934)"/>
</clipPath>
</defs>
</svg>
