<svg width="19" height="19" viewBox="0 0 19 19" fill="none" xmlns="http://www.w3.org/2000/svg">
<g clip-path="url(#clip0_4_781)">
<path d="M4.81525 1.06308C3.6828 1.06308 2.76132 1.97616 2.76132 3.09423L2.68665 13.6254L3.80697 13.6334L3.88168 3.09834C3.88168 2.59382 4.3005 2.1834 4.81529 2.1834H16.0746V1.06308H4.81525Z" fill="#6E6E8C"/>
<path d="M16.0746 1.06308C14.9008 1.06308 13.9459 2.01796 13.9459 3.19172V15.0112C13.9459 15.8657 13.2506 16.561 12.3961 16.561C11.5417 16.561 10.8463 15.8657 10.8463 15.0112V13.6481C10.8463 13.3387 10.5956 13.088 10.2862 13.088H0.763427C0.454017 13.088 0.203247 13.3387 0.203247 13.6481V15.0112C0.203247 16.4835 1.40106 17.6813 2.87337 17.6813V16.561C2.01875 16.561 1.32357 15.8657 1.32357 15.0112V14.2083H9.72606V15.0112C9.72606 16.4835 10.9238 17.6813 12.3961 17.6813C13.8684 17.6813 15.0662 16.4835 15.0662 15.0112V6.25393H17.643C17.9524 6.25393 18.2032 6.00316 18.2032 5.69375V3.19168C18.2032 2.01796 17.2483 1.06308 16.0746 1.06308ZM17.0829 5.13361H15.0663V3.19168C15.0663 2.63562 15.5187 2.1834 16.0746 2.1834C16.6304 2.1834 17.0828 2.63565 17.0828 3.19168L17.0829 5.13361Z" fill="#6E6E8C"/>
<path d="M12.2648 16.561H2.76086V17.6813H12.2648V16.561Z" fill="#6E6E8C"/>
<path d="M8.53067 4.18134H5.63647C5.32706 4.18134 5.07629 4.43211 5.07629 4.74152C5.07629 5.05093 5.32706 5.3017 5.63647 5.3017H8.53067C8.84008 5.3017 9.09085 5.05093 9.09085 4.74152C9.09085 4.43211 8.84005 4.18134 8.53067 4.18134Z" fill="#6E6E8C"/>
<path d="M11.8916 6.422H5.63647C5.32706 6.422 5.07629 6.67277 5.07629 6.98218C5.07629 7.29159 5.32706 7.54236 5.63647 7.54236H11.8916C12.201 7.54236 12.4518 7.29159 12.4518 6.98218C12.4518 6.67277 12.201 6.422 11.8916 6.422Z" fill="#6E6E8C"/>
<path d="M11.8916 8.66263H5.63647C5.32706 8.66263 5.07629 8.9134 5.07629 9.22281C5.07629 9.53222 5.32706 9.78298 5.63647 9.78298H11.8916C12.201 9.78298 12.4518 9.53239 12.4518 9.22281C12.4518 8.9134 12.201 8.66263 11.8916 8.66263Z" fill="#6E6E8C"/>
<path d="M11.8916 10.9033H5.63647C5.32706 10.9033 5.07629 11.1541 5.07629 11.4635C5.07629 11.7729 5.32706 12.0237 5.63647 12.0237H11.8916C12.201 12.0237 12.4518 11.7729 12.4518 11.4635C12.4518 11.1541 12.201 10.9033 11.8916 10.9033Z" fill="#6E6E8C"/>
</g>
<defs>
<clipPath id="clip0_4_781">
<rect width="18" height="18" fill="white" transform="translate(0.203247 0.372192)"/>
</clipPath>
</defs>
</svg>
