<svg width="22" height="22" viewBox="0 0 22 22" fill="none" xmlns="http://www.w3.org/2000/svg">
<g clip-path="url(#clip0_4_1086)">
<path d="M12.8681 4.13789L13.531 6.12889L9.87265 9.77C9.48912 10.1385 9.48891 10.7579 9.87219 11.1267C10.2407 11.4954 10.8601 11.4957 11.2289 11.1271L14.8725 7.47128L16.863 8.13556C17.1579 8.22414 17.4824 8.15052 17.7036 7.9294L20.2704 5.34966C20.6982 4.90741 20.5215 4.17003 19.9465 3.96338L17.6905 3.21054L16.9392 0.954072C16.733 0.364143 15.9957 0.186933 15.5532 0.629173L12.9717 3.19416C12.8242 3.32683 12.7209 3.57748 12.7208 3.76918C12.7208 3.84292 12.7355 3.94615 12.7502 4.01988L12.8681 4.13789ZM10.5669 6.27533C10.8619 6.27544 11.1715 6.30503 11.4517 6.36412L12.0418 5.75972L11.6146 4.50612C11.5998 4.47662 11.5998 4.43239 11.5851 4.40289C11.2312 4.32903 10.8773 4.28467 10.5234 4.28455C7.13171 4.28338 4.38794 7.01052 4.38676 10.4022C4.3856 13.7791 7.11274 16.5229 10.5044 16.5241C13.8814 16.5252 16.6251 13.7833 16.6263 10.3917C16.6264 10.023 16.5676 9.66908 16.5087 9.31515C16.4792 9.30039 16.435 9.30038 16.4055 9.30037L15.1522 8.87229L14.5474 9.46194C14.6063 9.74214 14.6357 10.0371 14.6356 10.3467C14.6348 12.6472 12.7466 14.5341 10.4314 14.5333C8.11619 14.5325 6.22929 12.6443 6.23009 10.3291C6.23089 8.01392 8.10434 6.12702 10.4195 6.12782L10.5669 6.27533ZM20.0927 7.44359L18.6471 8.8735C18.5881 8.91771 18.5291 8.96193 18.4701 9.00615C18.5437 9.46332 18.6025 9.94997 18.6023 10.4366C18.6008 14.8753 14.9719 18.4869 10.5332 18.4854C6.07981 18.4838 2.46819 14.8549 2.46972 10.4163C2.47126 5.96286 6.08538 2.35124 10.5241 2.35277C11.0107 2.35294 11.4973 2.39734 11.9692 2.48599C12.0134 2.42702 12.0429 2.35329 12.1019 2.30907L13.5328 0.864418C12.7071 0.598697 11.3653 0.391784 10.51 0.391489L10.4952 0.391484C4.96533 0.389575 0.480875 4.8562 0.478966 10.3861C0.477062 15.9013 4.94368 20.3857 10.4736 20.3876C15.9888 20.3895 20.4732 15.9082 20.4751 10.3783C20.4755 9.31652 20.2989 8.29895 20.0043 7.35508L20.0927 7.44359Z" fill="white"/>
</g>
<defs>
<clipPath id="clip0_4_1086">
<rect width="21" height="21" fill="white" transform="translate(0.5 0.0599976)"/>
</clipPath>
</defs>
</svg>
