<svg width="25" height="25" viewBox="0 0 25 25" fill="none" xmlns="http://www.w3.org/2000/svg">
<rect x="0.703247" y="0.872177" width="23" height="23" rx="3.5" fill="#141421"/>
<g clip-path="url(#clip0_4_946)">
<path d="M17.7641 9.52066C17.773 9.64502 17.773 9.76941 17.773 9.89377C17.773 13.6869 14.886 18.0575 9.60934 18.0575C7.9837 18.0575 6.47356 17.5866 5.20325 16.7694C5.43422 16.796 5.65628 16.8049 5.89614 16.8049C7.23749 16.8049 8.47227 16.3519 9.45832 15.5791C8.1969 15.5524 7.13979 14.7263 6.77557 13.5892C6.95325 13.6158 7.1309 13.6336 7.31747 13.6336C7.57507 13.6336 7.8327 13.5981 8.07254 13.5359C6.75782 13.2694 5.77175 12.1146 5.77175 10.7199V10.6844C6.15372 10.8976 6.59792 11.0308 7.06869 11.0486C6.29585 10.5333 5.78952 9.65391 5.78952 8.65898C5.78952 8.12599 5.93163 7.63742 6.18038 7.21102C7.59282 8.95213 9.71592 10.0892 12.0966 10.2136C12.0522 10.0004 12.0255 9.7783 12.0255 9.55621C12.0255 7.97498 13.3047 6.68692 14.8948 6.68692C15.721 6.68692 16.4671 7.03337 16.9913 7.59301C17.6397 7.46865 18.2616 7.22879 18.8123 6.90012C18.5991 7.56638 18.1461 8.12602 17.5509 8.48133C18.1283 8.41917 18.688 8.25924 19.2032 8.03718C18.8124 8.60569 18.3238 9.11201 17.7641 9.52066Z" fill="#5A5A74"/>
</g>
<rect x="0.703247" y="0.872177" width="23" height="23" rx="3.5" stroke="#1F1F2D"/>
<defs>
<clipPath id="clip0_4_946">
<rect width="14" height="14" fill="white" transform="translate(5.20325 5.37218)"/>
</clipPath>
</defs>
</svg>
