<svg width="25" height="25" viewBox="0 0 25 25" fill="none" xmlns="http://www.w3.org/2000/svg">
<rect x="0.703247" y="0.872177" width="23" height="23" rx="3.5" fill="#141421"/>
<g clip-path="url(#clip0_4_950)">
<path d="M16.6774 8.29984C16.6738 8.29292 16.6679 8.28749 16.6607 8.28453C15.8267 7.90191 14.9467 7.62907 14.0425 7.47284C14.0343 7.47131 14.0258 7.47241 14.0183 7.47599C14.0107 7.47956 14.0045 7.48542 14.0005 7.49274C13.8806 7.71024 13.7718 7.93365 13.6745 8.16212C12.6999 8.01417 11.7086 8.01417 10.734 8.16212C10.636 7.93307 10.5255 7.70961 10.4029 7.49274C10.3987 7.48558 10.3924 7.47985 10.3849 7.4763C10.3774 7.47275 10.369 7.47154 10.3608 7.47284C9.45655 7.62874 8.57645 7.9016 7.74261 8.28455C7.73547 8.28758 7.72945 8.29275 7.72537 8.29934C6.05786 10.7895 5.60107 13.2185 5.82516 15.6174C5.82579 15.6233 5.82759 15.629 5.83047 15.6342C5.83334 15.6393 5.83723 15.6439 5.84189 15.6475C6.81287 16.3664 7.89891 16.9152 9.05369 17.2704C9.06182 17.2728 9.0705 17.2727 9.07857 17.2701C9.08664 17.2674 9.0937 17.2624 9.09882 17.2556C9.34684 16.9181 9.5666 16.5608 9.75587 16.1872C9.75848 16.1821 9.75996 16.1764 9.76023 16.1707C9.7605 16.1649 9.75955 16.1592 9.75745 16.1539C9.75534 16.1485 9.75213 16.1437 9.74801 16.1397C9.7439 16.1356 9.73898 16.1325 9.73358 16.1306C9.38703 15.998 9.05153 15.8381 8.73022 15.6525C8.72439 15.6491 8.71948 15.6443 8.71595 15.6385C8.71241 15.6327 8.71036 15.6262 8.70996 15.6194C8.70956 15.6127 8.71083 15.6059 8.71366 15.5998C8.71648 15.5936 8.72078 15.5882 8.72618 15.5842C8.79359 15.5336 8.86106 15.4811 8.92543 15.428C8.93115 15.4233 8.93808 15.4203 8.94542 15.4193C8.95276 15.4183 8.96023 15.4194 8.967 15.4224C11.072 16.3831 13.351 16.3831 15.4311 15.4224C15.4378 15.4192 15.4454 15.418 15.4528 15.4189C15.4603 15.4198 15.4673 15.4228 15.4731 15.4275C15.5375 15.4806 15.605 15.5336 15.6729 15.5842C15.6783 15.5882 15.6827 15.5935 15.6855 15.5997C15.6884 15.6058 15.6897 15.6125 15.6894 15.6193C15.689 15.626 15.687 15.6326 15.6835 15.6384C15.68 15.6442 15.6752 15.6491 15.6694 15.6525C15.3488 15.8397 15.013 15.9994 14.6655 16.1301C14.6601 16.1321 14.6552 16.1353 14.6511 16.1394C14.6471 16.1434 14.6439 16.1483 14.6418 16.1537C14.6397 16.1591 14.6388 16.1649 14.6392 16.1707C14.6395 16.1764 14.641 16.182 14.6436 16.1872C14.8361 16.5587 15.0555 16.9156 15.3002 17.255C15.3052 17.262 15.3122 17.2672 15.3203 17.2699C15.3284 17.2727 15.3372 17.2728 15.3453 17.2703C16.5022 16.9163 17.5901 16.3675 18.5623 15.6475C18.567 15.644 18.571 15.6396 18.5739 15.6345C18.5768 15.6294 18.5785 15.6238 18.579 15.6179C18.8473 12.8445 18.1299 10.4355 16.6774 8.29984ZM10.0702 14.1567C9.43648 14.1567 8.91428 13.5752 8.91428 12.8609C8.91428 12.1466 9.42635 11.565 10.0702 11.565C10.7192 11.565 11.2363 12.1517 11.2262 12.8608C11.2262 13.5752 10.7141 14.1567 10.0702 14.1567ZM14.3442 14.1567C13.7104 14.1567 13.1882 13.5752 13.1882 12.8609C13.1882 12.1466 13.7003 11.565 14.3442 11.565C14.9931 11.565 15.5103 12.1517 15.5001 12.8608C15.5001 13.5752 14.9931 14.1567 14.3442 14.1567Z" fill="#5A5A74"/>
</g>
<rect x="0.703247" y="0.872177" width="23" height="23" rx="3.5" stroke="#1F1F2D"/>
<defs>
<clipPath id="clip0_4_950">
<rect width="14" height="14" fill="white" transform="translate(5.20325 5.37218)"/>
</clipPath>
</defs>
</svg>
