<svg width="25" height="25" viewBox="0 0 25 25" fill="none" xmlns="http://www.w3.org/2000/svg">
<rect x="0.703247" y="0.872177" width="23" height="23" rx="3.5" fill="#141421"/>
<g clip-path="url(#clip0_4_954)">
<path d="M16.8927 10.2257C16.8927 11.1499 16.1407 11.8937 15.2247 11.8937C14.3005 11.8937 13.5568 11.1472 13.5568 10.2257C13.5568 9.30421 14.3032 8.55772 15.2247 8.55772C16.1407 8.55772 16.8927 9.30147 16.8927 10.2257ZM18.3282 10.2312C18.3282 11.9538 16.9337 13.3429 15.2193 13.3429L12.2306 15.5249C12.1212 16.7007 11.1232 17.6249 9.92004 17.6249C8.81262 17.6249 7.87747 16.8374 7.65051 15.7929L6.07825 15.1612V12.2273L8.73606 13.3019C9.14895 13.0503 9.61653 12.9382 10.1579 12.9874L12.0993 10.2066C12.113 8.50304 13.5075 7.12218 15.2165 7.12218C16.9337 7.12218 18.3282 8.51671 18.3282 10.2312ZM11.629 15.298C11.629 14.3491 10.8689 13.589 9.92004 13.589C9.797 13.589 9.67395 13.6026 9.5509 13.63L10.2618 13.9171C10.9591 14.196 11.3009 14.9835 11.0193 15.6808C10.7404 16.378 9.94739 16.7198 9.25012 16.4327C8.97122 16.3233 8.68958 16.2058 8.41067 16.0991C8.69778 16.6378 9.26379 17.0069 9.92004 17.0069C10.8689 17.0069 11.629 16.2468 11.629 15.298ZM17.3029 10.2312C17.3029 9.08272 16.365 8.14757 15.2193 8.14757C14.0626 8.14757 13.1275 9.08272 13.1275 10.2312C13.1275 11.3851 14.0654 12.3148 15.2193 12.3148C16.365 12.3175 17.3029 11.3878 17.3029 10.2312Z" fill="#5A5A74"/>
</g>
<rect x="0.703247" y="0.872177" width="23" height="23" rx="3.5" stroke="#1F1F2D"/>
<defs>
<clipPath id="clip0_4_954">
<rect width="14" height="14" fill="white" transform="translate(5.20325 5.37218)"/>
</clipPath>
</defs>
</svg>
