<svg width="25" height="25" viewBox="0 0 25 25" fill="none" xmlns="http://www.w3.org/2000/svg">
<g clip-path="url(#clip0_4_989)">
<path d="M12.2032 24.3722C18.8201 24.3722 24.2032 18.9889 24.2032 12.3719C24.2032 5.75494 18.82 0.372192 12.2032 0.372192C5.58641 0.372192 0.203247 5.75515 0.203247 12.3722C0.203247 18.9892 5.58641 24.3722 12.2032 24.3722ZM12.2032 1.98073C17.933 1.98073 22.5947 6.64231 22.5947 12.3722C22.5947 18.1021 17.933 22.7637 12.2032 22.7637C6.47346 22.7637 1.81176 18.1021 1.81176 12.3722C1.81176 6.64226 6.4735 1.98073 12.2032 1.98073Z" fill="#6E6E8C"/>
<path d="M14.0494 12.3722C14.0494 13.3918 13.2228 14.2184 12.2032 14.2184C11.1836 14.2184 10.357 13.3918 10.357 12.3722C10.357 11.3526 11.1836 10.526 12.2032 10.526C13.2228 10.526 14.0494 11.3526 14.0494 12.3722Z" fill="#6E6E8C"/>
<path fill-rule="evenodd" clip-rule="evenodd" d="M14.6398 4.54879C13.8698 4.30846 13.0513 4.17892 12.2032 4.17892C11.3551 4.17892 10.5366 4.30846 9.76666 4.54879C9.55928 4.79087 9.43402 5.10536 9.43402 5.44911V9.60296H5.28017C4.93641 9.60296 4.6219 9.72824 4.37981 9.93563C4.13949 10.7056 4.00996 11.5241 4.00996 12.3722C4.00996 13.2203 4.1395 14.0388 4.37982 14.8088C4.62191 15.0162 4.93641 15.1414 5.28017 15.1414H9.43402V19.2953C9.43402 19.639 9.55929 19.9535 9.76666 20.1956C10.5366 20.4359 11.3551 20.5655 12.2032 20.5655C13.0513 20.5655 13.8698 20.4359 14.6398 20.1956C14.8472 19.9535 14.9724 19.639 14.9724 19.2953V15.1414H19.1263C19.4701 15.1414 19.7846 15.0161 20.0267 14.8087C20.267 14.0387 20.3965 13.2203 20.3965 12.3722C20.3965 11.5241 20.267 10.7057 20.0267 9.93567C19.7846 9.72826 19.4701 9.60296 19.1263 9.60296H14.9724V5.44911C14.9724 5.10536 14.8472 4.79087 14.6398 4.54879ZM14.9724 12.3738C14.9716 13.9025 13.7321 15.1414 12.2032 15.1414C10.6738 15.1414 9.43402 13.9016 9.43402 12.3722C9.43402 10.8428 10.6738 9.60296 12.2032 9.60296C13.7321 9.60296 14.9716 10.8419 14.9724 12.3706V12.3738ZM10.2047 7.98757L12.2032 4.52604L14.2017 7.98757H10.2047ZM14.2017 16.7568L12.2032 20.2184L10.2047 16.7568H14.2017ZM20.0494 12.3722L16.5878 10.3737V14.3707L20.0494 12.3722ZM4.3571 12.3722L7.81863 14.3707V10.3737L4.3571 12.3722Z" fill="#6E6E8C"/>
</g>
<defs>
<clipPath id="clip0_4_989">
<rect width="24" height="24" fill="white" transform="translate(0.203247 0.372192)"/>
</clipPath>
</defs>
</svg>
